PathFileType	4	(X/Y/Z)	 s10c0402.trc
DataRate	CameraRate	NumFrames	NumMarkers	Units	OrigDataRate	OrigDataStartFrame	OrigNumFrames
200	200	7	49	mm	200	751	2000
Frame#	Time	racr			lacr			c7			jug			rlel			rdr			llel			ldr			s2			lic			ric			lasi			rasi			rpsi			lpsi			rgt			lgt			rth1			rth2			rth3			rth4			rlfc			rmfc			rsh1			rsh2			rsh3			rsh4			rlmal			rmmal			rcal			rtoe			rmt5			lth1			lth2			lth4			lth3			llfc			lmfc			llmal			lcal			lmt5			lsh1			lsh2			lsh3			lsh4			ltoe			SBIKE			LBIKE			RBIKE			
		X1	Y1	Z1	X2	Y2	Z2	X3	Y3	Z3	X4	Y4	Z4	X5	Y5	Z5	X6	Y6	Z6	X7	Y7	Z7	X8	Y8	Z8	X9	Y9	Z9	X10	Y10	Z10	X11	Y11	Z11	X12	Y12	Z12	X13	Y13	Z13	X14	Y14	Z14	X15	Y15	Z15	X16	Y16	Z16	X17	Y17	Z17	X18	Y18	Z18	X19	Y19	Z19	X20	Y20	Z20	X21	Y21	Z21	X22	Y22	Z22	X23	Y23	Z23	X24	Y24	Z24	X25	Y25	Z25	X26	Y26	Z26	X27	Y27	Z27	X28	Y28	Z28	X29	Y29	Z29	X30	Y30	Z30	X31	Y31	Z31	X32	Y32	Z32	X33	Y33	Z33	X34	Y34	Z34	X35	Y35	Z35	X36	Y36	Z36	X37	Y37	Z37	X38	Y38	Z38	X39	Y39	Z39	X40	Y40	Z40	X41	Y41	Z41	X42	Y42	Z42	X43	Y43	Z43	X44	Y44	Z44	X45	Y45	Z45	X46	Y46	Z46	X47	Y47	Z47	X48	Y48	Z48	X49	Y49	Z49	
751	3.7550	593.375924	1353.373598	-29.208234	684.595372	1289.018502	-324.915990	622.056648	1353.055860	-189.854229	608.210653	1205.595866	-163.140713	511.430615	1094.807600	48.089786	622.142625	913.832649	-2.920390	542.170786	1079.593373	-473.737694	642.939365	911.416379	-388.493290	104.432029	1126.402657	-253.724944	283.490475	1119.535651	-394.086805	266.188966	1164.901426	-108.271295	305.723289	1034.540235	-353.275503	268.064012	1071.630765	-105.580285	141.117924	1188.322437	-202.975610	160.779803	1181.108666	-312.011463	163.968431	1050.347782	-47.160931	180.077686	987.126586	-422.152953	250.974244	943.721197	-11.860930	327.295713	897.449976	-15.376696	368.187840	822.659675	-6.742378	352.874870	922.284272	-27.724266	428.360818	734.973004	-11.707221	420.614256	717.460781	-128.500040	317.886251	694.294767	10.636945	254.311644	635.768853	-11.574802	171.089113	616.935637	-23.947121	272.252407	613.237257	-36.598120	76.744375	573.412709	-49.884041	111.956414	564.606791	-126.186167	37.527974	605.479951	-101.410466	142.647115	385.244797	-93.733800	77.224246	444.352674	-36.073049	233.681219	867.027859	-424.915343	286.857786	803.603434	-399.204624	318.464243	820.732042	-390.639103	300.185317	718.256230	-379.362424	353.577751	625.039502	-348.137084	335.710922	624.791257	-240.148092	192.752667	281.215879	-371.191544	129.985827	254.292389	-335.002047	298.554160	187.260885	-385.400800	290.320687	520.285434	-390.888199	283.929953	434.406716	-374.699877	237.243180	360.445744	-380.167154	306.325169	429.848537	-344.228694	379.727324	206.060354	-322.573090	-167.622453	823.720940	-219.108178	-78.194360	81.699514	-423.713131	-102.607009	80.484676	-24.456659	
752	3.7600	593.848562	1353.762910	-28.109698	682.052109	1290.961769	-324.592853	621.204230	1353.057225	-189.321616	607.993313	1205.486080	-162.150167	511.170296	1094.944996	49.300522	622.000533	913.859217	-2.930510	540.857773	1079.709029	-472.453835	642.864249	911.251664	-388.974490	104.858494	1125.171873	-258.506960	286.174276	1117.570365	-394.106109	264.169646	1163.190923	-107.572534	307.790592	1032.679669	-352.041937	266.145584	1069.966890	-104.807010	140.376359	1185.890216	-204.852160	161.929358	1178.693796	-314.302736	159.898617	1048.807863	-49.562881	182.943414	985.313647	-423.456781	250.180027	944.643137	-12.934408	327.823981	900.944398	-14.217392	371.040142	827.672968	-5.063135	352.969124	927.038595	-25.779811	434.317662	741.643489	-9.565417	428.209629	723.618495	-126.406598	324.095148	700.725995	11.963151	260.637104	642.116492	-10.382701	177.491998	623.384740	-23.294731	278.787106	619.513015	-35.140602	83.765747	579.549925	-49.441024	119.166520	570.692211	-125.830382	44.801066	611.574200	-100.952310	149.901790	391.291118	-93.445814	84.526578	450.419994	-35.836220	233.419298	864.925334	-425.593146	284.459964	800.117564	-399.553031	316.365314	816.250764	-390.341488	295.392490	714.144044	-380.082128	345.576389	618.707867	-348.215154	325.414974	618.262434	-240.474957	186.143372	275.448019	-371.903418	123.458285	249.067211	-335.959455	291.721837	181.115601	-385.629079	282.603335	513.777672	-391.492013	276.647922	428.085265	-374.804609	230.712903	353.719466	-380.492806	298.871072	423.840762	-344.229832	372.913537	199.489402	-322.688970	-167.649868	823.722259	-219.147821	-78.231391	81.614819	-423.811761	-102.625264	80.531689	-24.463888	
753	3.7650	594.625231	1354.142099	-26.866965	679.486509	1293.197586	-324.453207	620.414659	1353.047520	-188.881755	607.833310	1205.489527	-161.231019	511.186769	1094.992114	50.743322	621.911010	913.868558	-2.908181	539.534380	1079.950363	-471.369925	642.816741	911.074959	-389.457278	104.538441	1122.131973	-260.439187	288.976146	1115.562221	-393.979755	262.342186	1161.531964	-106.531876	309.763308	1030.916989	-350.624004	264.354723	1068.283596	-103.959752	139.702844	1183.657408	-207.284200	163.600086	1176.515354	-316.840428	155.835963	1047.346637	-52.026408	186.006325	983.812247	-425.324803	249.086513	945.426804	-13.477468	328.088847	904.556533	-13.155020	373.644262	832.777141	-3.289808	352.504590	931.400753	-24.526947	440.108931	748.743197	-7.330765	435.576007	730.088882	-124.604213	330.134533	707.220828	13.279782	267.053278	648.553467	-9.210540	183.997606	629.491057	-22.666004	285.410458	625.758987	-33.738338	91.079382	585.125586	-49.092608	126.670867	576.529003	-125.581627	52.166431	617.286358	-100.690159	158.252877	397.322850	-92.737363	92.129746	456.120464	-35.572110	233.212414	863.091131	-426.298253	282.397604	796.551076	-399.904783	314.338764	812.037756	-390.045861	290.736788	710.442697	-380.823973	337.374968	612.903196	-348.588440	314.600961	612.039222	-241.277672	179.280234	269.981240	-372.694907	116.634372	244.259171	-336.959366	284.653937	175.363303	-385.868927	274.552133	508.086061	-392.528740	268.982845	422.309102	-375.293445	223.742688	347.753614	-381.146180	291.282161	418.175977	-344.223029	365.731824	193.164360	-322.584119	-167.651847	823.670475	-219.314545	-78.194553	81.692379	-423.731907	-102.628568	80.518025	-24.468185	
754	3.7700	595.712524	1354.354921	-25.624218	676.828179	1295.490641	-324.627206	619.724487	1353.018708	-188.537713	608.185241	1206.149560	-158.490939	511.298887	1095.012065	52.206847	621.949356	913.938760	-2.697125	538.273788	1080.389391	-470.447080	642.696675	910.899719	-389.763194	105.820158	1120.773960	-265.071478	291.900671	1113.741961	-393.653724	260.110609	1159.802162	-105.846192	311.786639	1029.220347	-349.104538	261.481266	1066.774712	-103.532957	138.948351	1181.537331	-209.625784	165.232097	1174.329964	-319.117312	151.698347	1046.100180	-54.500048	188.980825	982.145334	-426.650717	247.520189	946.299043	-13.714630	328.171846	908.390418	-11.653680	376.026483	837.916544	-1.495188	351.839954	935.779955	-22.940042	445.728540	756.337696	-4.994517	442.745228	737.326651	-122.699277	336.248730	714.095267	14.983044	273.481371	654.802569	-8.018796	190.728291	635.343762	-22.079751	292.169120	632.106888	-32.362101	98.591295	590.617533	-48.640493	133.612068	581.653987	-125.993079	59.812755	622.418537	-100.311276	167.034089	403.494115	-91.764309	100.026933	461.513317	-35.421058	233.016732	861.512940	-427.000452	280.250727	793.565433	-400.387231	311.726219	808.635413	-390.547283	286.140517	707.126223	-381.644722	328.988595	607.819107	-349.270321	303.941082	605.889493	-242.365949	172.186887	264.918611	-373.649355	109.518098	239.930662	-338.050230	277.270432	169.888728	-386.157466	266.141172	503.432145	-393.952101	261.069270	417.711636	-376.429363	216.429980	342.781647	-382.049159	283.349213	413.802607	-345.207824	358.261045	187.339525	-322.620938	-167.711260	823.645137	-219.438227	-78.209687	81.622269	-423.818603	-102.624528	80.521267	-24.466115	
755	3.7750	597.061108	1354.470324	-24.459558	674.226198	1297.868855	-324.956693	619.042986	1352.962394	-188.078047	607.788379	1205.398444	-159.592443	511.440546	1095.003226	53.780626	621.862645	914.010703	-2.699144	537.012491	1080.830149	-469.642226	642.544453	910.730474	-389.925980	106.700359	1119.159391	-268.922390	294.870611	1112.088881	-393.246092	257.667919	1158.178189	-104.987471	313.778538	1027.526519	-347.452056	258.751250	1065.445258	-102.866314	138.493993	1179.364037	-211.500313	166.872005	1172.389791	-321.000416	147.526198	1045.008428	-56.886576	191.831764	980.746546	-427.870030	245.906353	947.082839	-13.717548	328.133951	911.814270	-10.167918	378.112726	843.261592	0.373728	350.728317	940.135488	-21.447145	451.115460	764.351962	-2.585426	449.808161	744.754306	-120.677382	342.003308	720.844518	16.510807	279.963788	661.059504	-6.733702	197.422723	641.031044	-21.546354	298.974181	638.499083	-30.947281	106.277817	595.599572	-48.272905	142.154961	587.191721	-125.175303	67.295584	627.170928	-100.340721	173.771803	407.552612	-92.389612	108.182056	466.461929	-35.155502	232.893234	860.046735	-427.692050	278.097824	790.893653	-400.955817	310.256950	804.714428	-389.734603	281.642686	704.234274	-382.641086	320.643115	603.727832	-350.301075	292.737231	600.998579	-243.642952	164.823514	260.477663	-374.743830	102.157576	236.243365	-339.318889	269.664564	164.895334	-386.508491	257.674374	499.537723	-395.603921	252.931894	413.965613	-377.713881	208.744441	338.673250	-383.252056	275.323920	410.150180	-346.529331	350.489858	181.739032	-322.521839	-168.383814	823.308787	-220.290028	-78.237456	81.610050	-423.842023	-102.609940	80.530030	-24.466547	
756	3.7800	598.740370	1354.359154	-23.342769	671.608400	1300.192373	-325.516074	618.558600	1352.822084	-186.802363	607.739334	1205.453865	-159.191741	511.576667	1095.205594	55.836589	621.812868	913.992517	-2.540561	535.829533	1081.514010	-469.126168	642.416542	910.670920	-390.024619	106.626757	1117.179194	-271.201598	297.745779	1110.484431	-392.572467	255.248196	1156.695210	-104.119978	315.659697	1025.942008	-345.723093	256.437741	1064.392948	-101.845589	138.145740	1177.455433	-213.715129	168.848076	1170.665804	-323.104785	143.365447	1043.994762	-59.154532	194.718120	979.435528	-428.995653	244.281156	948.404677	-12.900414	327.693586	915.334452	-8.682772	379.817191	848.758674	2.230993	349.203011	944.518006	-20.066215	456.291186	772.500125	-0.209204	456.527287	752.817685	-118.590470	347.519274	727.915327	18.150916	286.400024	667.383558	-5.445439	205.119677	645.849892	-21.472140	305.812164	644.879654	-29.443578	113.869442	600.308537	-47.859627	150.294048	592.061327	-124.809965	75.056655	631.311720	-100.422541	182.307343	412.288766	-92.086337	116.601364	471.134401	-34.920102	232.705402	858.919734	-428.432617	276.085083	788.656243	-401.619064	308.291591	801.637897	-389.524947	277.137545	701.768982	-383.726320	312.397536	600.539245	-351.580780	281.497592	597.055735	-245.194717	157.429463	256.954223	-376.183341	94.764842	233.018110	-341.069758	262.068436	160.417941	-386.816386	249.356990	496.256189	-397.327173	244.844611	410.741675	-379.277517	200.366825	334.282170	-383.584351	267.168069	406.906022	-347.965306	342.489573	176.630427	-322.012728	-169.582352	822.777668	-221.743430	-78.218567	81.642417	-423.875065	-102.628084	80.524579	-24.478422	
757	3.7850	600.725938	1354.084578	-22.250402	668.959804	1302.520569	-326.074493	618.157916	1352.873973	-186.218942	606.934364	1205.928544	-158.818248	512.013833	1095.069948	57.630855	621.734367	914.005185	-2.383555	534.881833	1082.048549	-468.512394	642.388039	910.601250	-390.028452	107.035265	1115.574150	-273.803635	300.542770	1108.974226	-391.673523	252.825607	1155.460522	-103.313757	317.405384	1024.513372	-343.914921	254.156805	1063.699777	-100.845634	138.090405	1177.003947	-219.156167	170.132818	1168.247793	-323.407356	139.333219	1042.963476	-61.521516	197.319255	978.322977	-429.734875	242.760943	948.548380	-12.889152	327.077662	919.124102	-7.164710	381.198526	854.361372	4.153040	347.423397	949.028826	-18.697277	460.990063	781.227572	2.796512	463.009927	760.989075	-117.132069	352.986785	734.856766	19.850240	292.759645	673.659780	-4.131348	211.948521	651.029603	-20.929397	312.629622	651.318913	-27.885158	121.430899	604.539646	-47.553855	158.358795	596.515220	-124.312221	82.396088	635.073829	-100.482549	190.996983	416.796307	-91.662341	125.001142	475.344470	-34.640427	233.139531	858.269915	-429.296718	274.090225	786.760422	-402.305393	306.351608	798.749733	-389.159724	272.598474	699.782259	-384.827108	304.257044	598.306457	-353.086645	270.410362	594.502633	-246.833223	149.901759	253.813031	-377.649524	87.336929	230.611226	-343.121922	254.455568	156.402455	-387.162547	241.307203	493.470823	-399.103040	236.769361	407.980978	-380.888734	192.423228	331.532779	-385.338700	259.133625	404.262902	-349.676246	334.312767	171.946141	-321.560367	-170.810251	822.135956	-223.423524	-78.225910	81.654336	-423.896624	-102.618341	80.522588	-24.468204	
